<svg xmlns="http://www.w3.org/2000/svg" id="Layer_1" viewBox="0 0 64 64"><path fill="#ecf0f1" d="M54.5 54.5h-45a5 5 0 0 1-5-5v-40h45v40"/><path fill="#3498db" d="M21.5 24.542h10.875v11.875H21.5z"/><path fill="#6daa31" d="M21.5 36.417h10.875v-5.438l-2.438-2.437zM24.937 28.542L21.5 31.979v4.438l5.851-5.462z"/><path fill="#e0e2e2" d="M54.5 54.5a5 5 0 0 1-5-5v-32h10v32a5 5 0 0 1-5 5z"/><path fill="#212e3a" d="M54.5 55h-45A5.507 5.507 0 0 1 4 49.5v-40a.5.5 0 0 1 .5-.5h45a.5.5 0 0 1 .5.5v40a.5.5 0 0 1-1 0V10H5v39.5C5 51.981 7.019 54 9.5 54h45a.5.5 0 0 1 0 1z"/><path fill="#212e3a" d="M46.5 22h-39a.5.5 0 0 1 0-1h39a.5.5 0 0 1 0 1zM54.5 55a5.507 5.507 0 0 1-5.5-5.5v-32a.5.5 0 0 1 .5-.5h10a.5.5 0 0 1 .5.5v32c0 3.032-2.468 5.5-5.5 5.5zM50 18v31.5c0 2.481 2.019 4.5 4.5 4.5s4.5-2.019 4.5-4.5V18h-9zM20 19a.5.5 0 0 1-.416-.223L16.5 14.151V18.5a.5.5 0 0 1-1 0v-6a.501.501 0 0 1 .916-.278l3.084 4.626V12.5a.5.5 0 0 1 1 0v6a.501.501 0 0 1-.5.5zM32 19a.5.5 0 0 1-.464-.314L30 14.847l-1.536 3.839a.487.487 0 0 1-.518.312.499.499 0 0 1-.439-.415l-1-6a.5.5 0 1 1 .986-.164l.706 4.237 1.337-3.341c.15-.381.777-.381.928 0l1.337 3.341.706-4.237a.5.5 0 1 1 .986.164l-1 6a.5.5 0 0 1-.439.415L32 19zM25 19h-3a.5.5 0 0 1-.5-.5v-6a.5.5 0 0 1 .5-.5h3a.5.5 0 0 1 0 1h-2.5v5H25a.5.5 0 0 1 0 1z"/><path fill="#212e3a" d="M24 16h-2a.5.5 0 0 1 0-1h2a.5.5 0 0 1 0 1zM37 19h-2a.5.5 0 0 1 0-1h2c.275 0 .5-.225.5-.5v-1c0-.275-.225-.5-.5-.5h-1c-.827 0-1.5-.673-1.5-1.5v-1c0-.827.673-1.5 1.5-1.5h2a.5.5 0 0 1 0 1h-2c-.275 0-.5.225-.5.5v1c0 .275.225.5.5.5h1c.827 0 1.5.673 1.5 1.5v1c0 .827-.673 1.5-1.5 1.5zM18.375 25.042H11.5a.5.5 0 0 1 0-1h6.875a.5.5 0 0 1 0 1zM18.375 28.042H7.5a.5.5 0 0 1 0-1h10.875a.5.5 0 0 1 0 1zM18.375 31.042H7.5a.5.5 0 0 1 0-1h10.875a.5.5 0 0 1 0 1zM18.375 34.042H7.5a.5.5 0 0 1 0-1h10.875a.5.5 0 0 1 0 1zM18.375 37.042H7.5a.5.5 0 0 1 0-1h10.875a.5.5 0 0 1 0 1zM18.375 40.042H7.5a.5.5 0 0 1 0-1h10.875a.5.5 0 0 1 0 1zM18.375 43.042H7.5a.5.5 0 0 1 0-1h10.875a.5.5 0 0 1 0 1zM18.375 46.042H7.5a.5.5 0 0 1 0-1h10.875a.5.5 0 0 1 0 1zM18.375 49.042H7.5a.5.5 0 0 1 0-1h10.875a.5.5 0 0 1 0 1zM18.375 52.042H8.5a.5.5 0 0 1 0-1h9.875a.5.5 0 0 1 0 1zM32.375 40.042H21.5a.5.5 0 0 1 0-1h10.875a.5.5 0 0 1 0 1zM32.375 43.042H21.5a.5.5 0 0 1 0-1h10.875a.5.5 0 0 1 0 1zM32.375 46.042H21.5a.5.5 0 0 1 0-1h10.875a.5.5 0 0 1 0 1zM32.375 49.042H21.5a.5.5 0 0 1 0-1h10.875a.5.5 0 0 1 0 1zM32.375 52.042H21.5a.5.5 0 0 1 0-1h10.875a.5.5 0 0 1 0 1zM46.375 40.042H35.5a.5.5 0 0 1 0-1h10.875a.5.5 0 0 1 0 1zM46.375 43.042H35.5a.5.5 0 0 1 0-1h10.875a.5.5 0 0 1 0 1zM46.375 46.042H35.5a.5.5 0 0 1 0-1h10.875a.5.5 0 0 1 0 1zM46.375 49.042H35.5a.5.5 0 0 1 0-1h10.875a.5.5 0 0 1 0 1zM46.375 52.042H35.5a.5.5 0 0 1 0-1h10.875a.5.5 0 0 1 0 1zM46.375 25.042H35.5a.5.5 0 0 1 0-1h10.875a.5.5 0 0 1 0 1zM46.375 28.042H35.5a.5.5 0 0 1 0-1h10.875a.5.5 0 0 1 0 1zM46.375 31.042H35.5a.5.5 0 0 1 0-1h10.875a.5.5 0 0 1 0 1zM46.375 34.042H35.5a.5.5 0 0 1 0-1h10.875a.5.5 0 0 1 0 1zM46.375 37.042H35.5a.5.5 0 0 1 0-1h10.875a.5.5 0 0 1 0 1zM32.375 36.917H21.5a.5.5 0 0 1-.5-.5V24.542a.5.5 0 0 1 .5-.5h10.875a.5.5 0 0 1 .5.5v11.875a.5.5 0 0 1-.5.5zm-10.375-1h9.875V25.042H22v10.875z"/><path fill="#212e3a" d="M32.375 36.917H21.5a.5.5 0 0 1-.341-.865l8.438-7.875a.499.499 0 0 1 .694.012l2.438 2.438a.5.5 0 0 1 .146.354v5.438a.5.5 0 0 1-.5.498zm-9.606-1h9.106v-4.73l-1.949-1.949-7.157 6.679z"/><path fill="#212e3a" d="M21.5 36.917a.501.501 0 0 1-.5-.5v-4.438c0-.133.053-.26.146-.354l3.438-3.438a.5.5 0 0 1 .707 0l2.414 2.413a.501.501 0 0 1-.013.718L21.84 36.78a.485.485 0 0 1-.34.137zm.5-4.73v3.08l4.632-4.324-1.694-1.693L22 32.187z"/></svg>